<mxfile host="embed.diagrams.net" modified="2023-12-03T13:07:28.720Z" agent="Mozilla/5.0 (Windows NT 10.0; Win64; x64) AppleWebKit/537.36 (KHTML, like Gecko) Chrome/119.0.0.0 Safari/537.36" etag="CblYsKZofuluOMIejc8e" version="22.1.5" type="embed">
  <diagram id="PZn-z4JDqNgD-gC6ib6t" name="Page-1">
    <mxGraphModel grid="1" page="1" gridSize="10" guides="1" tooltips="1" connect="1" arrows="1" fold="1" pageScale="1" pageWidth="827" pageHeight="1169" math="0" shadow="0">
      <root>
        <mxCell id="0" />
        <mxCell id="1" parent="0" />
        <mxCell id="qXFN8-RXIhqxppqacFem-7" value="" style="group" connectable="0" vertex="1" parent="1">
          <mxGeometry x="30" y="440" width="100" height="100" as="geometry" />
        </mxCell>
        <mxCell id="qXFN8-RXIhqxppqacFem-1" value="" style="ellipse;whiteSpace=wrap;html=1;aspect=fixed;fontSize=14;" vertex="1" parent="qXFN8-RXIhqxppqacFem-7">
          <mxGeometry width="100" height="100" as="geometry" />
        </mxCell>
        <mxCell id="qXFN8-RXIhqxppqacFem-2" value="" style="endArrow=none;html=1;rounded=0;exitX=0;exitY=0.5;exitDx=0;exitDy=0;entryX=1;entryY=0.5;entryDx=0;entryDy=0;fontSize=14;" edge="1" parent="qXFN8-RXIhqxppqacFem-7" source="qXFN8-RXIhqxppqacFem-1" target="qXFN8-RXIhqxppqacFem-1">
          <mxGeometry width="50" height="50" relative="1" as="geometry">
            <mxPoint x="150" y="110" as="sourcePoint" />
            <mxPoint x="200" y="60" as="targetPoint" />
          </mxGeometry>
        </mxCell>
        <mxCell id="qXFN8-RXIhqxppqacFem-3" value="" style="endArrow=none;html=1;rounded=0;entryX=0.5;entryY=0;entryDx=0;entryDy=0;fontSize=14;" edge="1" parent="qXFN8-RXIhqxppqacFem-7" target="qXFN8-RXIhqxppqacFem-1">
          <mxGeometry width="50" height="50" relative="1" as="geometry">
            <mxPoint x="50" y="50" as="sourcePoint" />
            <mxPoint x="200" y="60" as="targetPoint" />
          </mxGeometry>
        </mxCell>
        <mxCell id="qXFN8-RXIhqxppqacFem-4" value="DÃ©but" style="text;html=1;strokeColor=none;fillColor=none;align=center;verticalAlign=middle;whiteSpace=wrap;rounded=0;fontSize=14;" vertex="1" parent="qXFN8-RXIhqxppqacFem-7">
          <mxGeometry x="10" y="50" width="80" height="40" as="geometry" />
        </mxCell>
        <mxCell id="qXFN8-RXIhqxppqacFem-5" value="0" style="text;html=1;strokeColor=none;fillColor=none;align=center;verticalAlign=middle;whiteSpace=wrap;rounded=0;fontSize=14;" vertex="1" parent="qXFN8-RXIhqxppqacFem-7">
          <mxGeometry x="50" y="10" width="40" height="40" as="geometry" />
        </mxCell>
        <mxCell id="qXFN8-RXIhqxppqacFem-6" value="0" style="text;html=1;strokeColor=none;fillColor=none;align=center;verticalAlign=middle;whiteSpace=wrap;rounded=0;fontSize=14;" vertex="1" parent="qXFN8-RXIhqxppqacFem-7">
          <mxGeometry x="10" y="10" width="40" height="40" as="geometry" />
        </mxCell>
        <mxCell id="qXFN8-RXIhqxppqacFem-8" value="" style="group" connectable="0" vertex="1" parent="1">
          <mxGeometry x="450" y="660" width="100" height="100" as="geometry" />
        </mxCell>
        <mxCell id="qXFN8-RXIhqxppqacFem-9" value="" style="ellipse;whiteSpace=wrap;html=1;aspect=fixed;fontSize=14;" vertex="1" parent="qXFN8-RXIhqxppqacFem-8">
          <mxGeometry width="100" height="100" as="geometry" />
        </mxCell>
        <mxCell id="qXFN8-RXIhqxppqacFem-10" value="" style="endArrow=none;html=1;rounded=0;exitX=0;exitY=0.5;exitDx=0;exitDy=0;entryX=1;entryY=0.5;entryDx=0;entryDy=0;fontSize=14;" edge="1" parent="qXFN8-RXIhqxppqacFem-8" source="qXFN8-RXIhqxppqacFem-9" target="qXFN8-RXIhqxppqacFem-9">
          <mxGeometry width="50" height="50" relative="1" as="geometry">
            <mxPoint x="150" y="110" as="sourcePoint" />
            <mxPoint x="200" y="60" as="targetPoint" />
          </mxGeometry>
        </mxCell>
        <mxCell id="qXFN8-RXIhqxppqacFem-11" value="" style="endArrow=none;html=1;rounded=0;entryX=0.5;entryY=0;entryDx=0;entryDy=0;fontSize=14;" edge="1" parent="qXFN8-RXIhqxppqacFem-8" target="qXFN8-RXIhqxppqacFem-9">
          <mxGeometry width="50" height="50" relative="1" as="geometry">
            <mxPoint x="50" y="50" as="sourcePoint" />
            <mxPoint x="200" y="60" as="targetPoint" />
          </mxGeometry>
        </mxCell>
        <mxCell id="qXFN8-RXIhqxppqacFem-12" value="3" style="text;html=1;strokeColor=none;fillColor=none;align=center;verticalAlign=middle;whiteSpace=wrap;rounded=0;fontSize=14;" vertex="1" parent="qXFN8-RXIhqxppqacFem-8">
          <mxGeometry x="10" y="50" width="80" height="40" as="geometry" />
        </mxCell>
        <mxCell id="qXFN8-RXIhqxppqacFem-13" value="13" style="text;html=1;strokeColor=none;fillColor=none;align=center;verticalAlign=middle;whiteSpace=wrap;rounded=0;fontSize=14;" vertex="1" parent="qXFN8-RXIhqxppqacFem-8">
          <mxGeometry x="50" y="10" width="40" height="40" as="geometry" />
        </mxCell>
        <mxCell id="qXFN8-RXIhqxppqacFem-14" value="3" style="text;html=1;strokeColor=none;fillColor=none;align=center;verticalAlign=middle;whiteSpace=wrap;rounded=0;fontSize=14;" vertex="1" parent="qXFN8-RXIhqxppqacFem-8">
          <mxGeometry x="10" y="10" width="40" height="40" as="geometry" />
        </mxCell>
        <mxCell id="qXFN8-RXIhqxppqacFem-15" value="" style="group" connectable="0" vertex="1" parent="1">
          <mxGeometry x="450" y="370" width="100" height="100" as="geometry" />
        </mxCell>
        <mxCell id="qXFN8-RXIhqxppqacFem-16" value="" style="ellipse;whiteSpace=wrap;html=1;aspect=fixed;fontSize=14;" vertex="1" parent="qXFN8-RXIhqxppqacFem-15">
          <mxGeometry width="100" height="100" as="geometry" />
        </mxCell>
        <mxCell id="qXFN8-RXIhqxppqacFem-17" value="" style="endArrow=none;html=1;rounded=0;exitX=0;exitY=0.5;exitDx=0;exitDy=0;entryX=1;entryY=0.5;entryDx=0;entryDy=0;fontSize=14;" edge="1" parent="qXFN8-RXIhqxppqacFem-15" source="qXFN8-RXIhqxppqacFem-16" target="qXFN8-RXIhqxppqacFem-16">
          <mxGeometry width="50" height="50" relative="1" as="geometry">
            <mxPoint x="150" y="110" as="sourcePoint" />
            <mxPoint x="200" y="60" as="targetPoint" />
          </mxGeometry>
        </mxCell>
        <mxCell id="qXFN8-RXIhqxppqacFem-18" value="" style="endArrow=none;html=1;rounded=0;entryX=0.5;entryY=0;entryDx=0;entryDy=0;fontSize=14;" edge="1" parent="qXFN8-RXIhqxppqacFem-15" target="qXFN8-RXIhqxppqacFem-16">
          <mxGeometry width="50" height="50" relative="1" as="geometry">
            <mxPoint x="50" y="50" as="sourcePoint" />
            <mxPoint x="200" y="60" as="targetPoint" />
          </mxGeometry>
        </mxCell>
        <mxCell id="qXFN8-RXIhqxppqacFem-19" value="4" style="text;html=1;strokeColor=none;fillColor=none;align=center;verticalAlign=middle;whiteSpace=wrap;rounded=0;fontSize=14;" vertex="1" parent="qXFN8-RXIhqxppqacFem-15">
          <mxGeometry x="10" y="50" width="80" height="40" as="geometry" />
        </mxCell>
        <mxCell id="qXFN8-RXIhqxppqacFem-20" value="0" style="text;html=1;strokeColor=none;fillColor=none;align=center;verticalAlign=middle;whiteSpace=wrap;rounded=0;fontSize=14;" vertex="1" parent="qXFN8-RXIhqxppqacFem-15">
          <mxGeometry x="50" y="10" width="40" height="40" as="geometry" />
        </mxCell>
        <mxCell id="qXFN8-RXIhqxppqacFem-21" value="2" style="text;html=1;strokeColor=none;fillColor=none;align=center;verticalAlign=middle;whiteSpace=wrap;rounded=0;fontSize=14;" vertex="1" parent="qXFN8-RXIhqxppqacFem-15">
          <mxGeometry x="10" y="10" width="40" height="40" as="geometry" />
        </mxCell>
        <mxCell id="qXFN8-RXIhqxppqacFem-22" value="" style="group" connectable="0" vertex="1" parent="1">
          <mxGeometry x="450" y="70" width="100" height="100" as="geometry" />
        </mxCell>
        <mxCell id="qXFN8-RXIhqxppqacFem-23" value="" style="ellipse;whiteSpace=wrap;html=1;aspect=fixed;fontSize=14;" vertex="1" parent="qXFN8-RXIhqxppqacFem-22">
          <mxGeometry width="100" height="100" as="geometry" />
        </mxCell>
        <mxCell id="qXFN8-RXIhqxppqacFem-24" value="" style="endArrow=none;html=1;rounded=0;exitX=0;exitY=0.5;exitDx=0;exitDy=0;entryX=1;entryY=0.5;entryDx=0;entryDy=0;fontSize=14;" edge="1" parent="qXFN8-RXIhqxppqacFem-22" source="qXFN8-RXIhqxppqacFem-23" target="qXFN8-RXIhqxppqacFem-23">
          <mxGeometry width="50" height="50" relative="1" as="geometry">
            <mxPoint x="150" y="110" as="sourcePoint" />
            <mxPoint x="200" y="60" as="targetPoint" />
          </mxGeometry>
        </mxCell>
        <mxCell id="qXFN8-RXIhqxppqacFem-25" value="" style="endArrow=none;html=1;rounded=0;entryX=0.5;entryY=0;entryDx=0;entryDy=0;fontSize=14;" edge="1" parent="qXFN8-RXIhqxppqacFem-22" target="qXFN8-RXIhqxppqacFem-23">
          <mxGeometry width="50" height="50" relative="1" as="geometry">
            <mxPoint x="50" y="50" as="sourcePoint" />
            <mxPoint x="200" y="60" as="targetPoint" />
          </mxGeometry>
        </mxCell>
        <mxCell id="qXFN8-RXIhqxppqacFem-26" value="2" style="text;html=1;strokeColor=none;fillColor=none;align=center;verticalAlign=middle;whiteSpace=wrap;rounded=0;fontSize=14;" vertex="1" parent="qXFN8-RXIhqxppqacFem-22">
          <mxGeometry x="10" y="50" width="80" height="40" as="geometry" />
        </mxCell>
        <mxCell id="qXFN8-RXIhqxppqacFem-27" value="14" style="text;html=1;strokeColor=none;fillColor=none;align=center;verticalAlign=middle;whiteSpace=wrap;rounded=0;fontSize=14;" vertex="1" parent="qXFN8-RXIhqxppqacFem-22">
          <mxGeometry x="50" y="10" width="40" height="40" as="geometry" />
        </mxCell>
        <mxCell id="qXFN8-RXIhqxppqacFem-28" value="2" style="text;html=1;strokeColor=none;fillColor=none;align=center;verticalAlign=middle;whiteSpace=wrap;rounded=0;fontSize=14;" vertex="1" parent="qXFN8-RXIhqxppqacFem-22">
          <mxGeometry x="10" y="10" width="40" height="40" as="geometry" />
        </mxCell>
        <mxCell id="qXFN8-RXIhqxppqacFem-29" value="" style="group" connectable="0" vertex="1" parent="1">
          <mxGeometry x="450" y="210" width="100" height="100" as="geometry" />
        </mxCell>
        <mxCell id="qXFN8-RXIhqxppqacFem-30" value="" style="ellipse;whiteSpace=wrap;html=1;aspect=fixed;fontSize=14;" vertex="1" parent="qXFN8-RXIhqxppqacFem-29">
          <mxGeometry width="100" height="100" as="geometry" />
        </mxCell>
        <mxCell id="qXFN8-RXIhqxppqacFem-31" value="" style="endArrow=none;html=1;rounded=0;exitX=0;exitY=0.5;exitDx=0;exitDy=0;entryX=1;entryY=0.5;entryDx=0;entryDy=0;fontSize=14;" edge="1" parent="qXFN8-RXIhqxppqacFem-29" source="qXFN8-RXIhqxppqacFem-30" target="qXFN8-RXIhqxppqacFem-30">
          <mxGeometry width="50" height="50" relative="1" as="geometry">
            <mxPoint x="150" y="110" as="sourcePoint" />
            <mxPoint x="200" y="60" as="targetPoint" />
          </mxGeometry>
        </mxCell>
        <mxCell id="qXFN8-RXIhqxppqacFem-32" value="" style="endArrow=none;html=1;rounded=0;entryX=0.5;entryY=0;entryDx=0;entryDy=0;fontSize=14;" edge="1" parent="qXFN8-RXIhqxppqacFem-29" target="qXFN8-RXIhqxppqacFem-30">
          <mxGeometry width="50" height="50" relative="1" as="geometry">
            <mxPoint x="50" y="50" as="sourcePoint" />
            <mxPoint x="200" y="60" as="targetPoint" />
          </mxGeometry>
        </mxCell>
        <mxCell id="qXFN8-RXIhqxppqacFem-33" value="6" style="text;html=1;strokeColor=none;fillColor=none;align=center;verticalAlign=middle;whiteSpace=wrap;rounded=0;fontSize=14;" vertex="1" parent="qXFN8-RXIhqxppqacFem-29">
          <mxGeometry x="10" y="50" width="80" height="40" as="geometry" />
        </mxCell>
        <mxCell id="qXFN8-RXIhqxppqacFem-34" value="11" style="text;html=1;strokeColor=none;fillColor=none;align=center;verticalAlign=middle;whiteSpace=wrap;rounded=0;fontSize=14;" vertex="1" parent="qXFN8-RXIhqxppqacFem-29">
          <mxGeometry x="50" y="10" width="40" height="40" as="geometry" />
        </mxCell>
        <mxCell id="qXFN8-RXIhqxppqacFem-35" value="3" style="text;html=1;strokeColor=none;fillColor=none;align=center;verticalAlign=middle;whiteSpace=wrap;rounded=0;fontSize=14;" vertex="1" parent="qXFN8-RXIhqxppqacFem-29">
          <mxGeometry x="10" y="10" width="40" height="40" as="geometry" />
        </mxCell>
        <mxCell id="qXFN8-RXIhqxppqacFem-50" value="" style="group" connectable="0" vertex="1" parent="1">
          <mxGeometry x="450" y="830" width="100" height="100" as="geometry" />
        </mxCell>
        <mxCell id="qXFN8-RXIhqxppqacFem-51" value="" style="ellipse;whiteSpace=wrap;html=1;aspect=fixed;fontSize=14;" vertex="1" parent="qXFN8-RXIhqxppqacFem-50">
          <mxGeometry width="100" height="100" as="geometry" />
        </mxCell>
        <mxCell id="qXFN8-RXIhqxppqacFem-52" value="" style="endArrow=none;html=1;rounded=0;exitX=0;exitY=0.5;exitDx=0;exitDy=0;entryX=1;entryY=0.5;entryDx=0;entryDy=0;fontSize=14;" edge="1" parent="qXFN8-RXIhqxppqacFem-50" source="qXFN8-RXIhqxppqacFem-51" target="qXFN8-RXIhqxppqacFem-51">
          <mxGeometry width="50" height="50" relative="1" as="geometry">
            <mxPoint x="150" y="110" as="sourcePoint" />
            <mxPoint x="200" y="60" as="targetPoint" />
          </mxGeometry>
        </mxCell>
        <mxCell id="qXFN8-RXIhqxppqacFem-53" value="" style="endArrow=none;html=1;rounded=0;entryX=0.5;entryY=0;entryDx=0;entryDy=0;fontSize=14;" edge="1" parent="qXFN8-RXIhqxppqacFem-50" target="qXFN8-RXIhqxppqacFem-51">
          <mxGeometry width="50" height="50" relative="1" as="geometry">
            <mxPoint x="50" y="50" as="sourcePoint" />
            <mxPoint x="200" y="60" as="targetPoint" />
          </mxGeometry>
        </mxCell>
        <mxCell id="qXFN8-RXIhqxppqacFem-54" value="7" style="text;html=1;strokeColor=none;fillColor=none;align=center;verticalAlign=middle;whiteSpace=wrap;rounded=0;fontSize=14;" vertex="1" parent="qXFN8-RXIhqxppqacFem-50">
          <mxGeometry x="10" y="50" width="80" height="40" as="geometry" />
        </mxCell>
        <mxCell id="qXFN8-RXIhqxppqacFem-55" value="14" style="text;html=1;strokeColor=none;fillColor=none;align=center;verticalAlign=middle;whiteSpace=wrap;rounded=0;fontSize=14;" vertex="1" parent="qXFN8-RXIhqxppqacFem-50">
          <mxGeometry x="50" y="10" width="40" height="40" as="geometry" />
        </mxCell>
        <mxCell id="qXFN8-RXIhqxppqacFem-56" value="2" style="text;html=1;strokeColor=none;fillColor=none;align=center;verticalAlign=middle;whiteSpace=wrap;rounded=0;fontSize=14;" vertex="1" parent="qXFN8-RXIhqxppqacFem-50">
          <mxGeometry x="10" y="10" width="40" height="40" as="geometry" />
        </mxCell>
        <mxCell id="qXFN8-RXIhqxppqacFem-57" value="" style="endArrow=classic;html=1;rounded=0;entryX=0;entryY=0.5;entryDx=0;entryDy=0;exitX=1.005;exitY=0.598;exitDx=0;exitDy=0;exitPerimeter=0;fillColor=#f8cecc;strokeColor=#b85450;" edge="1" parent="1" source="qXFN8-RXIhqxppqacFem-65" target="qXFN8-RXIhqxppqacFem-37">
          <mxGeometry width="50" height="50" relative="1" as="geometry">
            <mxPoint x="280" y="380" as="sourcePoint" />
            <mxPoint x="280" y="240" as="targetPoint" />
          </mxGeometry>
        </mxCell>
        <mxCell id="qXFN8-RXIhqxppqacFem-71" value="B(1)&lt;br&gt;" style="edgeLabel;html=1;align=center;verticalAlign=middle;resizable=0;points=[];" connectable="0" vertex="1" parent="qXFN8-RXIhqxppqacFem-57">
          <mxGeometry x="-0.1193" relative="1" as="geometry">
            <mxPoint x="-1" as="offset" />
          </mxGeometry>
        </mxCell>
        <mxCell id="qXFN8-RXIhqxppqacFem-36" value="" style="group" connectable="0" vertex="1" parent="1">
          <mxGeometry x="450" y="510" width="100" height="100" as="geometry" />
        </mxCell>
        <mxCell id="qXFN8-RXIhqxppqacFem-37" value="" style="ellipse;whiteSpace=wrap;html=1;aspect=fixed;fontSize=14;" vertex="1" parent="qXFN8-RXIhqxppqacFem-36">
          <mxGeometry width="100" height="100" as="geometry" />
        </mxCell>
        <mxCell id="qXFN8-RXIhqxppqacFem-38" value="" style="endArrow=none;html=1;rounded=0;exitX=0;exitY=0.5;exitDx=0;exitDy=0;entryX=1;entryY=0.5;entryDx=0;entryDy=0;fontSize=14;" edge="1" parent="qXFN8-RXIhqxppqacFem-36" source="qXFN8-RXIhqxppqacFem-37" target="qXFN8-RXIhqxppqacFem-37">
          <mxGeometry width="50" height="50" relative="1" as="geometry">
            <mxPoint x="150" y="110" as="sourcePoint" />
            <mxPoint x="200" y="60" as="targetPoint" />
          </mxGeometry>
        </mxCell>
        <mxCell id="qXFN8-RXIhqxppqacFem-39" value="" style="endArrow=none;html=1;rounded=0;entryX=0.5;entryY=0;entryDx=0;entryDy=0;fontSize=14;" edge="1" parent="qXFN8-RXIhqxppqacFem-36" target="qXFN8-RXIhqxppqacFem-37">
          <mxGeometry width="50" height="50" relative="1" as="geometry">
            <mxPoint x="50" y="50" as="sourcePoint" />
            <mxPoint x="200" y="60" as="targetPoint" />
          </mxGeometry>
        </mxCell>
        <mxCell id="qXFN8-RXIhqxppqacFem-40" value="5" style="text;html=1;strokeColor=none;fillColor=none;align=center;verticalAlign=middle;whiteSpace=wrap;rounded=0;fontSize=14;" vertex="1" parent="qXFN8-RXIhqxppqacFem-36">
          <mxGeometry x="10" y="50" width="80" height="40" as="geometry" />
        </mxCell>
        <mxCell id="qXFN8-RXIhqxppqacFem-41" value="2" style="text;html=1;strokeColor=none;fillColor=none;align=center;verticalAlign=middle;whiteSpace=wrap;rounded=0;fontSize=14;" vertex="1" parent="qXFN8-RXIhqxppqacFem-36">
          <mxGeometry x="50" y="10" width="40" height="40" as="geometry" />
        </mxCell>
        <mxCell id="qXFN8-RXIhqxppqacFem-42" value="2" style="text;html=1;strokeColor=none;fillColor=none;align=center;verticalAlign=middle;whiteSpace=wrap;rounded=0;fontSize=14;" vertex="1" parent="qXFN8-RXIhqxppqacFem-36">
          <mxGeometry x="10" y="10" width="40" height="40" as="geometry" />
        </mxCell>
        <mxCell id="qXFN8-RXIhqxppqacFem-64" value="" style="group" connectable="0" vertex="1" parent="1">
          <mxGeometry x="190" y="440" width="100" height="100" as="geometry" />
        </mxCell>
        <mxCell id="qXFN8-RXIhqxppqacFem-65" value="" style="ellipse;whiteSpace=wrap;html=1;aspect=fixed;fontSize=14;" vertex="1" parent="qXFN8-RXIhqxppqacFem-64">
          <mxGeometry width="100" height="100" as="geometry" />
        </mxCell>
        <mxCell id="qXFN8-RXIhqxppqacFem-66" value="" style="endArrow=none;html=1;rounded=0;exitX=0;exitY=0.5;exitDx=0;exitDy=0;entryX=1;entryY=0.5;entryDx=0;entryDy=0;fontSize=14;" edge="1" parent="qXFN8-RXIhqxppqacFem-64" source="qXFN8-RXIhqxppqacFem-65" target="qXFN8-RXIhqxppqacFem-65">
          <mxGeometry width="50" height="50" relative="1" as="geometry">
            <mxPoint x="150" y="110" as="sourcePoint" />
            <mxPoint x="200" y="60" as="targetPoint" />
          </mxGeometry>
        </mxCell>
        <mxCell id="qXFN8-RXIhqxppqacFem-67" value="" style="endArrow=none;html=1;rounded=0;entryX=0.5;entryY=0;entryDx=0;entryDy=0;fontSize=14;" edge="1" parent="qXFN8-RXIhqxppqacFem-64" target="qXFN8-RXIhqxppqacFem-65">
          <mxGeometry width="50" height="50" relative="1" as="geometry">
            <mxPoint x="50" y="50" as="sourcePoint" />
            <mxPoint x="200" y="60" as="targetPoint" />
          </mxGeometry>
        </mxCell>
        <mxCell id="qXFN8-RXIhqxppqacFem-68" value="1" style="text;html=1;strokeColor=none;fillColor=none;align=center;verticalAlign=middle;whiteSpace=wrap;rounded=0;fontSize=14;" vertex="1" parent="qXFN8-RXIhqxppqacFem-64">
          <mxGeometry x="10" y="50" width="80" height="40" as="geometry" />
        </mxCell>
        <mxCell id="qXFN8-RXIhqxppqacFem-69" value="1" style="text;html=1;strokeColor=none;fillColor=none;align=center;verticalAlign=middle;whiteSpace=wrap;rounded=0;fontSize=14;" vertex="1" parent="qXFN8-RXIhqxppqacFem-64">
          <mxGeometry x="50" y="10" width="40" height="40" as="geometry" />
        </mxCell>
        <mxCell id="qXFN8-RXIhqxppqacFem-70" value="1" style="text;html=1;strokeColor=none;fillColor=none;align=center;verticalAlign=middle;whiteSpace=wrap;rounded=0;fontSize=14;" vertex="1" parent="qXFN8-RXIhqxppqacFem-64">
          <mxGeometry x="10" y="10" width="40" height="40" as="geometry" />
        </mxCell>
        <mxCell id="qXFN8-RXIhqxppqacFem-74" value="" style="endArrow=classic;html=1;rounded=0;entryX=0;entryY=0.5;entryDx=0;entryDy=0;exitX=1;exitY=0.5;exitDx=0;exitDy=0;fillColor=#f8cecc;strokeColor=#b85450;" edge="1" parent="1" source="qXFN8-RXIhqxppqacFem-1" target="qXFN8-RXIhqxppqacFem-65">
          <mxGeometry width="50" height="50" relative="1" as="geometry">
            <mxPoint x="250" y="450" as="sourcePoint" />
            <mxPoint x="464" y="220" as="targetPoint" />
          </mxGeometry>
        </mxCell>
        <mxCell id="qXFN8-RXIhqxppqacFem-75" value="A(1)" style="edgeLabel;html=1;align=center;verticalAlign=middle;resizable=0;points=[];" connectable="0" vertex="1" parent="qXFN8-RXIhqxppqacFem-74">
          <mxGeometry x="-0.1193" relative="1" as="geometry">
            <mxPoint x="-1" as="offset" />
          </mxGeometry>
        </mxCell>
        <mxCell id="qXFN8-RXIhqxppqacFem-76" value="" style="endArrow=classic;html=1;rounded=0;exitX=1;exitY=1;exitDx=0;exitDy=0;entryX=0;entryY=0.25;entryDx=0;entryDy=0;" edge="1" parent="1" source="qXFN8-RXIhqxppqacFem-65" target="qXFN8-RXIhqxppqacFem-14">
          <mxGeometry width="50" height="50" relative="1" as="geometry">
            <mxPoint x="320" y="600" as="sourcePoint" />
            <mxPoint x="370" y="550" as="targetPoint" />
          </mxGeometry>
        </mxCell>
        <mxCell id="qXFN8-RXIhqxppqacFem-77" value="D(2)" style="edgeLabel;html=1;align=center;verticalAlign=middle;resizable=0;points=[];" connectable="0" vertex="1" parent="qXFN8-RXIhqxppqacFem-76">
          <mxGeometry x="0.0325" y="-2" relative="1" as="geometry">
            <mxPoint x="1" as="offset" />
          </mxGeometry>
        </mxCell>
        <mxCell id="qXFN8-RXIhqxppqacFem-78" value="" style="endArrow=classic;html=1;rounded=0;exitX=0.946;exitY=0.269;exitDx=0;exitDy=0;entryX=0;entryY=0.5;entryDx=0;entryDy=0;exitPerimeter=0;" edge="1" parent="1" source="qXFN8-RXIhqxppqacFem-65" target="qXFN8-RXIhqxppqacFem-16">
          <mxGeometry width="50" height="50" relative="1" as="geometry">
            <mxPoint x="320" y="600" as="sourcePoint" />
            <mxPoint x="370" y="550" as="targetPoint" />
          </mxGeometry>
        </mxCell>
        <mxCell id="qXFN8-RXIhqxppqacFem-79" value="F(1)" style="edgeLabel;html=1;align=center;verticalAlign=middle;resizable=0;points=[];" connectable="0" vertex="1" parent="qXFN8-RXIhqxppqacFem-78">
          <mxGeometry x="-0.0963" y="-4" relative="1" as="geometry">
            <mxPoint x="1" as="offset" />
          </mxGeometry>
        </mxCell>
        <mxCell id="qXFN8-RXIhqxppqacFem-80" value="" style="endArrow=classic;html=1;rounded=0;entryX=0;entryY=1;entryDx=0;entryDy=0;exitX=0.664;exitY=0.022;exitDx=0;exitDy=0;exitPerimeter=0;" edge="1" parent="1" source="qXFN8-RXIhqxppqacFem-65" target="qXFN8-RXIhqxppqacFem-23">
          <mxGeometry width="50" height="50" relative="1" as="geometry">
            <mxPoint x="250" y="310" as="sourcePoint" />
            <mxPoint x="370" y="550" as="targetPoint" />
          </mxGeometry>
        </mxCell>
        <mxCell id="qXFN8-RXIhqxppqacFem-81" value="H(1)" style="edgeLabel;html=1;align=center;verticalAlign=middle;resizable=0;points=[];" connectable="0" vertex="1" parent="qXFN8-RXIhqxppqacFem-80">
          <mxGeometry x="-0.1306" y="-1" relative="1" as="geometry">
            <mxPoint y="-1" as="offset" />
          </mxGeometry>
        </mxCell>
        <mxCell id="qXFN8-RXIhqxppqacFem-82" value="" style="endArrow=classic;html=1;rounded=0;entryX=0;entryY=1;entryDx=0;entryDy=0;exitX=1;exitY=0;exitDx=0;exitDy=0;" edge="1" parent="1" source="qXFN8-RXIhqxppqacFem-65" target="qXFN8-RXIhqxppqacFem-30">
          <mxGeometry width="50" height="50" relative="1" as="geometry">
            <mxPoint x="250" y="540" as="sourcePoint" />
            <mxPoint x="370" y="550" as="targetPoint" />
          </mxGeometry>
        </mxCell>
        <mxCell id="qXFN8-RXIhqxppqacFem-83" value="I(2)" style="edgeLabel;html=1;align=center;verticalAlign=middle;resizable=0;points=[];" connectable="0" vertex="1" parent="qXFN8-RXIhqxppqacFem-82">
          <mxGeometry x="-0.0308" y="3" relative="1" as="geometry">
            <mxPoint as="offset" />
          </mxGeometry>
        </mxCell>
        <mxCell id="qXFN8-RXIhqxppqacFem-84" value="" style="endArrow=classic;html=1;rounded=0;exitX=0.723;exitY=0.951;exitDx=0;exitDy=0;exitPerimeter=0;entryX=0;entryY=0;entryDx=0;entryDy=0;" edge="1" parent="1" source="qXFN8-RXIhqxppqacFem-65" target="qXFN8-RXIhqxppqacFem-51">
          <mxGeometry width="50" height="50" relative="1" as="geometry">
            <mxPoint x="320" y="560" as="sourcePoint" />
            <mxPoint x="370" y="510" as="targetPoint" />
          </mxGeometry>
        </mxCell>
        <mxCell id="qXFN8-RXIhqxppqacFem-85" value="R(1)&lt;br&gt;" style="edgeLabel;html=1;align=center;verticalAlign=middle;resizable=0;points=[];" connectable="0" vertex="1" parent="qXFN8-RXIhqxppqacFem-84">
          <mxGeometry x="0.0041" y="2" relative="1" as="geometry">
            <mxPoint as="offset" />
          </mxGeometry>
        </mxCell>
        <mxCell id="qXFN8-RXIhqxppqacFem-87" value="" style="group" connectable="0" vertex="1" parent="1">
          <mxGeometry x="660" y="510" width="100" height="100" as="geometry" />
        </mxCell>
        <mxCell id="qXFN8-RXIhqxppqacFem-88" value="" style="ellipse;whiteSpace=wrap;html=1;aspect=fixed;fontSize=14;" vertex="1" parent="qXFN8-RXIhqxppqacFem-87">
          <mxGeometry width="100" height="100" as="geometry" />
        </mxCell>
        <mxCell id="qXFN8-RXIhqxppqacFem-89" value="" style="endArrow=none;html=1;rounded=0;exitX=0;exitY=0.5;exitDx=0;exitDy=0;entryX=1;entryY=0.5;entryDx=0;entryDy=0;fontSize=14;" edge="1" parent="qXFN8-RXIhqxppqacFem-87" source="qXFN8-RXIhqxppqacFem-88" target="qXFN8-RXIhqxppqacFem-88">
          <mxGeometry width="50" height="50" relative="1" as="geometry">
            <mxPoint x="150" y="110" as="sourcePoint" />
            <mxPoint x="200" y="60" as="targetPoint" />
          </mxGeometry>
        </mxCell>
        <mxCell id="qXFN8-RXIhqxppqacFem-90" value="" style="endArrow=none;html=1;rounded=0;entryX=0.5;entryY=0;entryDx=0;entryDy=0;fontSize=14;" edge="1" parent="qXFN8-RXIhqxppqacFem-87" target="qXFN8-RXIhqxppqacFem-88">
          <mxGeometry width="50" height="50" relative="1" as="geometry">
            <mxPoint x="50" y="50" as="sourcePoint" />
            <mxPoint x="200" y="60" as="targetPoint" />
          </mxGeometry>
        </mxCell>
        <mxCell id="qXFN8-RXIhqxppqacFem-91" value="10" style="text;html=1;strokeColor=none;fillColor=none;align=center;verticalAlign=middle;whiteSpace=wrap;rounded=0;fontSize=14;" vertex="1" parent="qXFN8-RXIhqxppqacFem-87">
          <mxGeometry x="10" y="50" width="80" height="40" as="geometry" />
        </mxCell>
        <mxCell id="qXFN8-RXIhqxppqacFem-92" value="3" style="text;html=1;strokeColor=none;fillColor=none;align=center;verticalAlign=middle;whiteSpace=wrap;rounded=0;fontSize=14;" vertex="1" parent="qXFN8-RXIhqxppqacFem-87">
          <mxGeometry x="50" y="10" width="40" height="40" as="geometry" />
        </mxCell>
        <mxCell id="qXFN8-RXIhqxppqacFem-93" value="3" style="text;html=1;strokeColor=none;fillColor=none;align=center;verticalAlign=middle;whiteSpace=wrap;rounded=0;fontSize=14;" vertex="1" parent="qXFN8-RXIhqxppqacFem-87">
          <mxGeometry x="10" y="10" width="40" height="40" as="geometry" />
        </mxCell>
        <mxCell id="qXFN8-RXIhqxppqacFem-94" value="" style="endArrow=classic;html=1;rounded=0;fillColor=#f8cecc;strokeColor=#b85450;" edge="1" parent="1">
          <mxGeometry width="50" height="50" relative="1" as="geometry">
            <mxPoint x="550" y="560" as="sourcePoint" />
            <mxPoint x="660" y="560" as="targetPoint" />
          </mxGeometry>
        </mxCell>
        <mxCell id="qXFN8-RXIhqxppqacFem-95" value="C(1)" style="edgeLabel;html=1;align=center;verticalAlign=middle;resizable=0;points=[];" connectable="0" vertex="1" parent="qXFN8-RXIhqxppqacFem-94">
          <mxGeometry x="-0.1775" y="-1" relative="1" as="geometry">
            <mxPoint x="1" as="offset" />
          </mxGeometry>
        </mxCell>
        <mxCell id="qXFN8-RXIhqxppqacFem-96" value="" style="group" connectable="0" vertex="1" parent="1">
          <mxGeometry x="660" y="660" width="100" height="100" as="geometry" />
        </mxCell>
        <mxCell id="qXFN8-RXIhqxppqacFem-97" value="" style="ellipse;whiteSpace=wrap;html=1;aspect=fixed;fontSize=14;" vertex="1" parent="qXFN8-RXIhqxppqacFem-96">
          <mxGeometry width="100" height="100" as="geometry" />
        </mxCell>
        <mxCell id="qXFN8-RXIhqxppqacFem-98" value="" style="endArrow=none;html=1;rounded=0;exitX=0;exitY=0.5;exitDx=0;exitDy=0;entryX=1;entryY=0.5;entryDx=0;entryDy=0;fontSize=14;" edge="1" parent="qXFN8-RXIhqxppqacFem-96" source="qXFN8-RXIhqxppqacFem-97" target="qXFN8-RXIhqxppqacFem-97">
          <mxGeometry width="50" height="50" relative="1" as="geometry">
            <mxPoint x="150" y="110" as="sourcePoint" />
            <mxPoint x="200" y="60" as="targetPoint" />
          </mxGeometry>
        </mxCell>
        <mxCell id="qXFN8-RXIhqxppqacFem-99" value="" style="endArrow=none;html=1;rounded=0;entryX=0.5;entryY=0;entryDx=0;entryDy=0;fontSize=14;" edge="1" parent="qXFN8-RXIhqxppqacFem-96" target="qXFN8-RXIhqxppqacFem-97">
          <mxGeometry width="50" height="50" relative="1" as="geometry">
            <mxPoint x="50" y="50" as="sourcePoint" />
            <mxPoint x="200" y="60" as="targetPoint" />
          </mxGeometry>
        </mxCell>
        <mxCell id="qXFN8-RXIhqxppqacFem-100" value="8" style="text;html=1;strokeColor=none;fillColor=none;align=center;verticalAlign=middle;whiteSpace=wrap;rounded=0;fontSize=14;" vertex="1" parent="qXFN8-RXIhqxppqacFem-96">
          <mxGeometry x="10" y="50" width="80" height="40" as="geometry" />
        </mxCell>
        <mxCell id="qXFN8-RXIhqxppqacFem-101" value="14" style="text;html=1;strokeColor=none;fillColor=none;align=center;verticalAlign=middle;whiteSpace=wrap;rounded=0;fontSize=14;" vertex="1" parent="qXFN8-RXIhqxppqacFem-96">
          <mxGeometry x="50" y="10" width="40" height="40" as="geometry" />
        </mxCell>
        <mxCell id="qXFN8-RXIhqxppqacFem-102" value="4" style="text;html=1;strokeColor=none;fillColor=none;align=center;verticalAlign=middle;whiteSpace=wrap;rounded=0;fontSize=14;" vertex="1" parent="qXFN8-RXIhqxppqacFem-96">
          <mxGeometry x="10" y="10" width="40" height="40" as="geometry" />
        </mxCell>
        <mxCell id="qXFN8-RXIhqxppqacFem-103" value="" style="endArrow=classic;html=1;rounded=0;exitX=1;exitY=0.5;exitDx=0;exitDy=0;entryX=0;entryY=0.5;entryDx=0;entryDy=0;" edge="1" parent="1" source="qXFN8-RXIhqxppqacFem-9" target="qXFN8-RXIhqxppqacFem-97">
          <mxGeometry width="50" height="50" relative="1" as="geometry">
            <mxPoint x="560" y="800" as="sourcePoint" />
            <mxPoint x="820" y="710" as="targetPoint" />
          </mxGeometry>
        </mxCell>
        <mxCell id="qXFN8-RXIhqxppqacFem-104" value="E(1)" style="edgeLabel;html=1;align=center;verticalAlign=middle;resizable=0;points=[];" connectable="0" vertex="1" parent="qXFN8-RXIhqxppqacFem-103">
          <mxGeometry x="-0.0064" y="-3" relative="1" as="geometry">
            <mxPoint x="1" as="offset" />
          </mxGeometry>
        </mxCell>
        <mxCell id="qXFN8-RXIhqxppqacFem-105" value="" style="group" connectable="0" vertex="1" parent="1">
          <mxGeometry x="660" y="370" width="100" height="100" as="geometry" />
        </mxCell>
        <mxCell id="qXFN8-RXIhqxppqacFem-106" value="" style="ellipse;whiteSpace=wrap;html=1;aspect=fixed;fontSize=14;" vertex="1" parent="qXFN8-RXIhqxppqacFem-105">
          <mxGeometry width="100" height="100" as="geometry" />
        </mxCell>
        <mxCell id="qXFN8-RXIhqxppqacFem-107" value="" style="endArrow=none;html=1;rounded=0;exitX=0;exitY=0.5;exitDx=0;exitDy=0;entryX=1;entryY=0.5;entryDx=0;entryDy=0;fontSize=14;" edge="1" parent="qXFN8-RXIhqxppqacFem-105" source="qXFN8-RXIhqxppqacFem-106" target="qXFN8-RXIhqxppqacFem-106">
          <mxGeometry width="50" height="50" relative="1" as="geometry">
            <mxPoint x="150" y="110" as="sourcePoint" />
            <mxPoint x="200" y="60" as="targetPoint" />
          </mxGeometry>
        </mxCell>
        <mxCell id="qXFN8-RXIhqxppqacFem-108" value="" style="endArrow=none;html=1;rounded=0;entryX=0.5;entryY=0;entryDx=0;entryDy=0;fontSize=14;" edge="1" parent="qXFN8-RXIhqxppqacFem-105" target="qXFN8-RXIhqxppqacFem-106">
          <mxGeometry width="50" height="50" relative="1" as="geometry">
            <mxPoint x="50" y="50" as="sourcePoint" />
            <mxPoint x="200" y="60" as="targetPoint" />
          </mxGeometry>
        </mxCell>
        <mxCell id="qXFN8-RXIhqxppqacFem-109" value="9" style="text;html=1;strokeColor=none;fillColor=none;align=center;verticalAlign=middle;whiteSpace=wrap;rounded=0;fontSize=14;" vertex="1" parent="qXFN8-RXIhqxppqacFem-105">
          <mxGeometry x="10" y="50" width="80" height="40" as="geometry" />
        </mxCell>
        <mxCell id="qXFN8-RXIhqxppqacFem-110" value="0" style="text;html=1;strokeColor=none;fillColor=none;align=center;verticalAlign=middle;whiteSpace=wrap;rounded=0;fontSize=14;" vertex="1" parent="qXFN8-RXIhqxppqacFem-105">
          <mxGeometry x="50" y="10" width="40" height="40" as="geometry" />
        </mxCell>
        <mxCell id="qXFN8-RXIhqxppqacFem-111" value="4" style="text;html=1;strokeColor=none;fillColor=none;align=center;verticalAlign=middle;whiteSpace=wrap;rounded=0;fontSize=14;" vertex="1" parent="qXFN8-RXIhqxppqacFem-105">
          <mxGeometry x="10" y="10" width="40" height="40" as="geometry" />
        </mxCell>
        <mxCell id="qXFN8-RXIhqxppqacFem-112" value="" style="endArrow=classic;html=1;rounded=0;" edge="1" parent="1">
          <mxGeometry width="50" height="50" relative="1" as="geometry">
            <mxPoint x="550" y="420" as="sourcePoint" />
            <mxPoint x="660" y="420" as="targetPoint" />
          </mxGeometry>
        </mxCell>
        <mxCell id="qXFN8-RXIhqxppqacFem-113" value="G(2)" style="edgeLabel;html=1;align=center;verticalAlign=middle;resizable=0;points=[];" connectable="0" vertex="1" parent="qXFN8-RXIhqxppqacFem-112">
          <mxGeometry x="-0.1561" y="-2" relative="1" as="geometry">
            <mxPoint x="1" as="offset" />
          </mxGeometry>
        </mxCell>
        <mxCell id="qXFN8-RXIhqxppqacFem-114" value="" style="group" connectable="0" vertex="1" parent="1">
          <mxGeometry x="1070" y="160" width="100" height="100" as="geometry" />
        </mxCell>
        <mxCell id="qXFN8-RXIhqxppqacFem-115" value="" style="ellipse;whiteSpace=wrap;html=1;aspect=fixed;fontSize=14;" vertex="1" parent="qXFN8-RXIhqxppqacFem-114">
          <mxGeometry width="100" height="100" as="geometry" />
        </mxCell>
        <mxCell id="qXFN8-RXIhqxppqacFem-116" value="" style="endArrow=none;html=1;rounded=0;exitX=0;exitY=0.5;exitDx=0;exitDy=0;entryX=1;entryY=0.5;entryDx=0;entryDy=0;fontSize=14;" edge="1" parent="qXFN8-RXIhqxppqacFem-114" source="qXFN8-RXIhqxppqacFem-115" target="qXFN8-RXIhqxppqacFem-115">
          <mxGeometry width="50" height="50" relative="1" as="geometry">
            <mxPoint x="150" y="110" as="sourcePoint" />
            <mxPoint x="200" y="60" as="targetPoint" />
          </mxGeometry>
        </mxCell>
        <mxCell id="qXFN8-RXIhqxppqacFem-117" value="" style="endArrow=none;html=1;rounded=0;entryX=0.5;entryY=0;entryDx=0;entryDy=0;fontSize=14;" edge="1" parent="qXFN8-RXIhqxppqacFem-114" target="qXFN8-RXIhqxppqacFem-115">
          <mxGeometry width="50" height="50" relative="1" as="geometry">
            <mxPoint x="50" y="50" as="sourcePoint" />
            <mxPoint x="200" y="60" as="targetPoint" />
          </mxGeometry>
        </mxCell>
        <mxCell id="qXFN8-RXIhqxppqacFem-118" value="11" style="text;html=1;strokeColor=none;fillColor=none;align=center;verticalAlign=middle;whiteSpace=wrap;rounded=0;fontSize=14;" vertex="1" parent="qXFN8-RXIhqxppqacFem-114">
          <mxGeometry x="10" y="50" width="80" height="40" as="geometry" />
        </mxCell>
        <mxCell id="qXFN8-RXIhqxppqacFem-119" value="14" style="text;html=1;strokeColor=none;fillColor=none;align=center;verticalAlign=middle;whiteSpace=wrap;rounded=0;fontSize=14;" vertex="1" parent="qXFN8-RXIhqxppqacFem-114">
          <mxGeometry x="50" y="10" width="40" height="40" as="geometry" />
        </mxCell>
        <mxCell id="qXFN8-RXIhqxppqacFem-120" value="5" style="text;html=1;strokeColor=none;fillColor=none;align=center;verticalAlign=middle;whiteSpace=wrap;rounded=0;fontSize=14;" vertex="1" parent="qXFN8-RXIhqxppqacFem-114">
          <mxGeometry x="10" y="10" width="40" height="40" as="geometry" />
        </mxCell>
        <mxCell id="qXFN8-RXIhqxppqacFem-121" value="" style="endArrow=classic;html=1;rounded=0;entryX=0;entryY=0.5;entryDx=0;entryDy=0;" edge="1" parent="1" target="qXFN8-RXIhqxppqacFem-115">
          <mxGeometry width="50" height="50" relative="1" as="geometry">
            <mxPoint x="550" y="260" as="sourcePoint" />
            <mxPoint x="660" y="150" as="targetPoint" />
          </mxGeometry>
        </mxCell>
        <mxCell id="qXFN8-RXIhqxppqacFem-122" value="J(3)" style="edgeLabel;html=1;align=center;verticalAlign=middle;resizable=0;points=[];" connectable="0" vertex="1" parent="qXFN8-RXIhqxppqacFem-121">
          <mxGeometry x="0.0791" y="3" relative="1" as="geometry">
            <mxPoint x="1" as="offset" />
          </mxGeometry>
        </mxCell>
        <mxCell id="qXFN8-RXIhqxppqacFem-130" value="" style="group" connectable="0" vertex="1" parent="1">
          <mxGeometry x="860" y="510.00000000000006" width="100" height="100" as="geometry" />
        </mxCell>
        <mxCell id="qXFN8-RXIhqxppqacFem-131" value="" style="ellipse;whiteSpace=wrap;html=1;aspect=fixed;fontSize=14;" vertex="1" parent="qXFN8-RXIhqxppqacFem-130">
          <mxGeometry width="100" height="100" as="geometry" />
        </mxCell>
        <mxCell id="qXFN8-RXIhqxppqacFem-132" value="" style="endArrow=none;html=1;rounded=0;exitX=0;exitY=0.5;exitDx=0;exitDy=0;entryX=1;entryY=0.5;entryDx=0;entryDy=0;fontSize=14;" edge="1" parent="qXFN8-RXIhqxppqacFem-130" source="qXFN8-RXIhqxppqacFem-131" target="qXFN8-RXIhqxppqacFem-131">
          <mxGeometry width="50" height="50" relative="1" as="geometry">
            <mxPoint x="150" y="110" as="sourcePoint" />
            <mxPoint x="200" y="60" as="targetPoint" />
          </mxGeometry>
        </mxCell>
        <mxCell id="qXFN8-RXIhqxppqacFem-133" value="" style="endArrow=none;html=1;rounded=0;entryX=0.5;entryY=0;entryDx=0;entryDy=0;fontSize=14;" edge="1" parent="qXFN8-RXIhqxppqacFem-130" target="qXFN8-RXIhqxppqacFem-131">
          <mxGeometry width="50" height="50" relative="1" as="geometry">
            <mxPoint x="50" y="50" as="sourcePoint" />
            <mxPoint x="200" y="60" as="targetPoint" />
          </mxGeometry>
        </mxCell>
        <mxCell id="qXFN8-RXIhqxppqacFem-134" value="12" style="text;html=1;strokeColor=none;fillColor=none;align=center;verticalAlign=middle;whiteSpace=wrap;rounded=0;fontSize=14;" vertex="1" parent="qXFN8-RXIhqxppqacFem-130">
          <mxGeometry x="10" y="50" width="80" height="40" as="geometry" />
        </mxCell>
        <mxCell id="qXFN8-RXIhqxppqacFem-135" value="5" style="text;html=1;strokeColor=none;fillColor=none;align=center;verticalAlign=middle;whiteSpace=wrap;rounded=0;fontSize=14;" vertex="1" parent="qXFN8-RXIhqxppqacFem-130">
          <mxGeometry x="50" y="10" width="40" height="40" as="geometry" />
        </mxCell>
        <mxCell id="qXFN8-RXIhqxppqacFem-136" value="5" style="text;html=1;strokeColor=none;fillColor=none;align=center;verticalAlign=middle;whiteSpace=wrap;rounded=0;fontSize=14;" vertex="1" parent="qXFN8-RXIhqxppqacFem-130">
          <mxGeometry x="10" y="10" width="40" height="40" as="geometry" />
        </mxCell>
        <mxCell id="qXFN8-RXIhqxppqacFem-137" value="" style="group" connectable="0" vertex="1" parent="1">
          <mxGeometry x="860" y="320" width="100" height="100" as="geometry" />
        </mxCell>
        <mxCell id="qXFN8-RXIhqxppqacFem-138" value="" style="ellipse;whiteSpace=wrap;html=1;aspect=fixed;fontSize=14;" vertex="1" parent="qXFN8-RXIhqxppqacFem-137">
          <mxGeometry width="100" height="100" as="geometry" />
        </mxCell>
        <mxCell id="qXFN8-RXIhqxppqacFem-139" value="" style="endArrow=none;html=1;rounded=0;exitX=0;exitY=0.5;exitDx=0;exitDy=0;entryX=1;entryY=0.5;entryDx=0;entryDy=0;fontSize=14;" edge="1" parent="qXFN8-RXIhqxppqacFem-137" source="qXFN8-RXIhqxppqacFem-138" target="qXFN8-RXIhqxppqacFem-138">
          <mxGeometry width="50" height="50" relative="1" as="geometry">
            <mxPoint x="150" y="110" as="sourcePoint" />
            <mxPoint x="200" y="60" as="targetPoint" />
          </mxGeometry>
        </mxCell>
        <mxCell id="qXFN8-RXIhqxppqacFem-140" value="" style="endArrow=none;html=1;rounded=0;entryX=0.5;entryY=0;entryDx=0;entryDy=0;fontSize=14;" edge="1" parent="qXFN8-RXIhqxppqacFem-137" target="qXFN8-RXIhqxppqacFem-138">
          <mxGeometry width="50" height="50" relative="1" as="geometry">
            <mxPoint x="50" y="50" as="sourcePoint" />
            <mxPoint x="200" y="60" as="targetPoint" />
          </mxGeometry>
        </mxCell>
        <mxCell id="qXFN8-RXIhqxppqacFem-141" value="13" style="text;html=1;strokeColor=none;fillColor=none;align=center;verticalAlign=middle;whiteSpace=wrap;rounded=0;fontSize=14;" vertex="1" parent="qXFN8-RXIhqxppqacFem-137">
          <mxGeometry x="10" y="50" width="80" height="40" as="geometry" />
        </mxCell>
        <mxCell id="qXFN8-RXIhqxppqacFem-142" value="13" style="text;html=1;strokeColor=none;fillColor=none;align=center;verticalAlign=middle;whiteSpace=wrap;rounded=0;fontSize=14;" vertex="1" parent="qXFN8-RXIhqxppqacFem-137">
          <mxGeometry x="50" y="10" width="40" height="40" as="geometry" />
        </mxCell>
        <mxCell id="qXFN8-RXIhqxppqacFem-143" value="5" style="text;html=1;strokeColor=none;fillColor=none;align=center;verticalAlign=middle;whiteSpace=wrap;rounded=0;fontSize=14;" vertex="1" parent="qXFN8-RXIhqxppqacFem-137">
          <mxGeometry x="10" y="10" width="40" height="40" as="geometry" />
        </mxCell>
        <mxCell id="qXFN8-RXIhqxppqacFem-144" value="" style="endArrow=classic;html=1;rounded=0;entryX=0;entryY=0.5;entryDx=0;entryDy=0;exitX=1;exitY=0.5;exitDx=0;exitDy=0;fillColor=#f8cecc;strokeColor=#b85450;" edge="1" parent="1" source="qXFN8-RXIhqxppqacFem-88" target="qXFN8-RXIhqxppqacFem-131">
          <mxGeometry width="50" height="50" relative="1" as="geometry">
            <mxPoint x="760" y="580" as="sourcePoint" />
            <mxPoint x="770" y="530" as="targetPoint" />
          </mxGeometry>
        </mxCell>
        <mxCell id="qXFN8-RXIhqxppqacFem-146" value="K(2)" style="edgeLabel;html=1;align=center;verticalAlign=middle;resizable=0;points=[];" connectable="0" vertex="1" parent="qXFN8-RXIhqxppqacFem-144">
          <mxGeometry x="-0.0725" y="-3" relative="1" as="geometry">
            <mxPoint as="offset" />
          </mxGeometry>
        </mxCell>
        <mxCell id="qXFN8-RXIhqxppqacFem-145" value="" style="endArrow=classic;html=1;rounded=0;exitX=1;exitY=0;exitDx=0;exitDy=0;entryX=0;entryY=0.5;entryDx=0;entryDy=0;" edge="1" parent="1" source="qXFN8-RXIhqxppqacFem-88" target="qXFN8-RXIhqxppqacFem-138">
          <mxGeometry width="50" height="50" relative="1" as="geometry">
            <mxPoint x="720" y="580" as="sourcePoint" />
            <mxPoint x="770" y="530" as="targetPoint" />
          </mxGeometry>
        </mxCell>
        <mxCell id="qXFN8-RXIhqxppqacFem-147" value="O(1)" style="edgeLabel;html=1;align=center;verticalAlign=middle;resizable=0;points=[];" connectable="0" vertex="1" parent="qXFN8-RXIhqxppqacFem-145">
          <mxGeometry x="-0.0902" relative="1" as="geometry">
            <mxPoint as="offset" />
          </mxGeometry>
        </mxCell>
        <mxCell id="qXFN8-RXIhqxppqacFem-148" value="" style="group" connectable="0" vertex="1" parent="1">
          <mxGeometry x="1070" y="510.00000000000006" width="100" height="100" as="geometry" />
        </mxCell>
        <mxCell id="qXFN8-RXIhqxppqacFem-149" value="" style="ellipse;whiteSpace=wrap;html=1;aspect=fixed;fontSize=14;" vertex="1" parent="qXFN8-RXIhqxppqacFem-148">
          <mxGeometry width="100" height="100" as="geometry" />
        </mxCell>
        <mxCell id="qXFN8-RXIhqxppqacFem-150" value="" style="endArrow=none;html=1;rounded=0;exitX=0;exitY=0.5;exitDx=0;exitDy=0;entryX=1;entryY=0.5;entryDx=0;entryDy=0;fontSize=14;" edge="1" parent="qXFN8-RXIhqxppqacFem-148" source="qXFN8-RXIhqxppqacFem-149" target="qXFN8-RXIhqxppqacFem-149">
          <mxGeometry width="50" height="50" relative="1" as="geometry">
            <mxPoint x="150" y="110" as="sourcePoint" />
            <mxPoint x="200" y="60" as="targetPoint" />
          </mxGeometry>
        </mxCell>
        <mxCell id="qXFN8-RXIhqxppqacFem-151" value="" style="endArrow=none;html=1;rounded=0;entryX=0.5;entryY=0;entryDx=0;entryDy=0;fontSize=14;" edge="1" parent="qXFN8-RXIhqxppqacFem-148" target="qXFN8-RXIhqxppqacFem-149">
          <mxGeometry width="50" height="50" relative="1" as="geometry">
            <mxPoint x="50" y="50" as="sourcePoint" />
            <mxPoint x="200" y="60" as="targetPoint" />
          </mxGeometry>
        </mxCell>
        <mxCell id="qXFN8-RXIhqxppqacFem-152" value="14" style="text;html=1;strokeColor=none;fillColor=none;align=center;verticalAlign=middle;whiteSpace=wrap;rounded=0;fontSize=14;" vertex="1" parent="qXFN8-RXIhqxppqacFem-148">
          <mxGeometry x="10" y="50" width="80" height="40" as="geometry" />
        </mxCell>
        <mxCell id="qXFN8-RXIhqxppqacFem-153" value="8" style="text;html=1;strokeColor=none;fillColor=none;align=center;verticalAlign=middle;whiteSpace=wrap;rounded=0;fontSize=14;" vertex="1" parent="qXFN8-RXIhqxppqacFem-148">
          <mxGeometry x="50" y="10" width="40" height="40" as="geometry" />
        </mxCell>
        <mxCell id="qXFN8-RXIhqxppqacFem-154" value="8" style="text;html=1;strokeColor=none;fillColor=none;align=center;verticalAlign=middle;whiteSpace=wrap;rounded=0;fontSize=14;" vertex="1" parent="qXFN8-RXIhqxppqacFem-148">
          <mxGeometry x="10" y="10" width="40" height="40" as="geometry" />
        </mxCell>
        <mxCell id="qXFN8-RXIhqxppqacFem-155" value="" style="group" connectable="0" vertex="1" parent="1">
          <mxGeometry x="1070" y="320" width="100" height="100" as="geometry" />
        </mxCell>
        <mxCell id="qXFN8-RXIhqxppqacFem-156" value="" style="ellipse;whiteSpace=wrap;html=1;aspect=fixed;fontSize=14;" vertex="1" parent="qXFN8-RXIhqxppqacFem-155">
          <mxGeometry width="100" height="100" as="geometry" />
        </mxCell>
        <mxCell id="qXFN8-RXIhqxppqacFem-157" value="" style="endArrow=none;html=1;rounded=0;exitX=0;exitY=0.5;exitDx=0;exitDy=0;entryX=1;entryY=0.5;entryDx=0;entryDy=0;fontSize=14;" edge="1" parent="qXFN8-RXIhqxppqacFem-155" source="qXFN8-RXIhqxppqacFem-156" target="qXFN8-RXIhqxppqacFem-156">
          <mxGeometry width="50" height="50" relative="1" as="geometry">
            <mxPoint x="150" y="110" as="sourcePoint" />
            <mxPoint x="200" y="60" as="targetPoint" />
          </mxGeometry>
        </mxCell>
        <mxCell id="qXFN8-RXIhqxppqacFem-158" value="" style="endArrow=none;html=1;rounded=0;entryX=0.5;entryY=0;entryDx=0;entryDy=0;fontSize=14;" edge="1" parent="qXFN8-RXIhqxppqacFem-155" target="qXFN8-RXIhqxppqacFem-156">
          <mxGeometry width="50" height="50" relative="1" as="geometry">
            <mxPoint x="50" y="50" as="sourcePoint" />
            <mxPoint x="200" y="60" as="targetPoint" />
          </mxGeometry>
        </mxCell>
        <mxCell id="qXFN8-RXIhqxppqacFem-159" value="15" style="text;html=1;strokeColor=none;fillColor=none;align=center;verticalAlign=middle;whiteSpace=wrap;rounded=0;fontSize=14;" vertex="1" parent="qXFN8-RXIhqxppqacFem-155">
          <mxGeometry x="10" y="50" width="80" height="40" as="geometry" />
        </mxCell>
        <mxCell id="qXFN8-RXIhqxppqacFem-160" value="14" style="text;html=1;strokeColor=none;fillColor=none;align=center;verticalAlign=middle;whiteSpace=wrap;rounded=0;fontSize=14;" vertex="1" parent="qXFN8-RXIhqxppqacFem-155">
          <mxGeometry x="50" y="10" width="40" height="40" as="geometry" />
        </mxCell>
        <mxCell id="qXFN8-RXIhqxppqacFem-161" value="6" style="text;html=1;strokeColor=none;fillColor=none;align=center;verticalAlign=middle;whiteSpace=wrap;rounded=0;fontSize=14;" vertex="1" parent="qXFN8-RXIhqxppqacFem-155">
          <mxGeometry x="10" y="10" width="40" height="40" as="geometry" />
        </mxCell>
        <mxCell id="qXFN8-RXIhqxppqacFem-162" value="" style="endArrow=classic;html=1;rounded=0;entryX=0;entryY=0.5;entryDx=0;entryDy=0;" edge="1" parent="1" target="qXFN8-RXIhqxppqacFem-156">
          <mxGeometry width="50" height="50" relative="1" as="geometry">
            <mxPoint x="960" y="370" as="sourcePoint" />
            <mxPoint x="920" y="250" as="targetPoint" />
          </mxGeometry>
        </mxCell>
        <mxCell id="qXFN8-RXIhqxppqacFem-163" value="P(1)&lt;br&gt;" style="edgeLabel;html=1;align=center;verticalAlign=middle;resizable=0;points=[];" connectable="0" vertex="1" parent="qXFN8-RXIhqxppqacFem-162">
          <mxGeometry x="-0.0599" y="-4" relative="1" as="geometry">
            <mxPoint as="offset" />
          </mxGeometry>
        </mxCell>
        <mxCell id="qXFN8-RXIhqxppqacFem-164" value="" style="endArrow=classic;html=1;rounded=0;entryX=0;entryY=0.5;entryDx=0;entryDy=0;fillColor=#f8cecc;strokeColor=#b85450;" edge="1" parent="1" target="qXFN8-RXIhqxppqacFem-149">
          <mxGeometry width="50" height="50" relative="1" as="geometry">
            <mxPoint x="960" y="560" as="sourcePoint" />
            <mxPoint x="920" y="620" as="targetPoint" />
          </mxGeometry>
        </mxCell>
        <mxCell id="qXFN8-RXIhqxppqacFem-165" value="L(3)&lt;br&gt;" style="edgeLabel;html=1;align=center;verticalAlign=middle;resizable=0;points=[];" connectable="0" vertex="1" parent="qXFN8-RXIhqxppqacFem-164">
          <mxGeometry x="-0.1027" relative="1" as="geometry">
            <mxPoint as="offset" />
          </mxGeometry>
        </mxCell>
        <mxCell id="qXFN8-RXIhqxppqacFem-166" value="" style="group" connectable="0" vertex="1" parent="1">
          <mxGeometry x="1270" y="510" width="100" height="100" as="geometry" />
        </mxCell>
        <mxCell id="qXFN8-RXIhqxppqacFem-167" value="" style="ellipse;whiteSpace=wrap;html=1;aspect=fixed;fontSize=14;" vertex="1" parent="qXFN8-RXIhqxppqacFem-166">
          <mxGeometry width="100" height="100" as="geometry" />
        </mxCell>
        <mxCell id="qXFN8-RXIhqxppqacFem-168" value="" style="endArrow=none;html=1;rounded=0;exitX=0;exitY=0.5;exitDx=0;exitDy=0;entryX=1;entryY=0.5;entryDx=0;entryDy=0;fontSize=14;" edge="1" parent="qXFN8-RXIhqxppqacFem-166" source="qXFN8-RXIhqxppqacFem-167" target="qXFN8-RXIhqxppqacFem-167">
          <mxGeometry width="50" height="50" relative="1" as="geometry">
            <mxPoint x="150" y="110" as="sourcePoint" />
            <mxPoint x="200" y="60" as="targetPoint" />
          </mxGeometry>
        </mxCell>
        <mxCell id="qXFN8-RXIhqxppqacFem-169" value="" style="endArrow=none;html=1;rounded=0;entryX=0.5;entryY=0;entryDx=0;entryDy=0;fontSize=14;" edge="1" parent="qXFN8-RXIhqxppqacFem-166" target="qXFN8-RXIhqxppqacFem-167">
          <mxGeometry width="50" height="50" relative="1" as="geometry">
            <mxPoint x="50" y="50" as="sourcePoint" />
            <mxPoint x="200" y="60" as="targetPoint" />
          </mxGeometry>
        </mxCell>
        <mxCell id="qXFN8-RXIhqxppqacFem-170" value="16" style="text;html=1;strokeColor=none;fillColor=none;align=center;verticalAlign=middle;whiteSpace=wrap;rounded=0;fontSize=14;" vertex="1" parent="qXFN8-RXIhqxppqacFem-166">
          <mxGeometry x="10" y="50" width="80" height="40" as="geometry" />
        </mxCell>
        <mxCell id="qXFN8-RXIhqxppqacFem-171" value="10" style="text;html=1;strokeColor=none;fillColor=none;align=center;verticalAlign=middle;whiteSpace=wrap;rounded=0;fontSize=14;" vertex="1" parent="qXFN8-RXIhqxppqacFem-166">
          <mxGeometry x="50" y="10" width="40" height="40" as="geometry" />
        </mxCell>
        <mxCell id="qXFN8-RXIhqxppqacFem-172" value="10" style="text;html=1;strokeColor=none;fillColor=none;align=center;verticalAlign=middle;whiteSpace=wrap;rounded=0;fontSize=14;" vertex="1" parent="qXFN8-RXIhqxppqacFem-166">
          <mxGeometry x="10" y="10" width="40" height="40" as="geometry" />
        </mxCell>
        <mxCell id="qXFN8-RXIhqxppqacFem-173" value="" style="group" connectable="0" vertex="1" parent="1">
          <mxGeometry x="1460" y="510" width="100" height="100" as="geometry" />
        </mxCell>
        <mxCell id="qXFN8-RXIhqxppqacFem-174" value="" style="ellipse;whiteSpace=wrap;html=1;aspect=fixed;fontSize=14;" vertex="1" parent="qXFN8-RXIhqxppqacFem-173">
          <mxGeometry width="100" height="100" as="geometry" />
        </mxCell>
        <mxCell id="qXFN8-RXIhqxppqacFem-175" value="" style="endArrow=none;html=1;rounded=0;exitX=0;exitY=0.5;exitDx=0;exitDy=0;entryX=1;entryY=0.5;entryDx=0;entryDy=0;fontSize=14;" edge="1" parent="qXFN8-RXIhqxppqacFem-173" source="qXFN8-RXIhqxppqacFem-174" target="qXFN8-RXIhqxppqacFem-174">
          <mxGeometry width="50" height="50" relative="1" as="geometry">
            <mxPoint x="150" y="110" as="sourcePoint" />
            <mxPoint x="200" y="60" as="targetPoint" />
          </mxGeometry>
        </mxCell>
        <mxCell id="qXFN8-RXIhqxppqacFem-176" value="" style="endArrow=none;html=1;rounded=0;entryX=0.5;entryY=0;entryDx=0;entryDy=0;fontSize=14;" edge="1" parent="qXFN8-RXIhqxppqacFem-173" target="qXFN8-RXIhqxppqacFem-174">
          <mxGeometry width="50" height="50" relative="1" as="geometry">
            <mxPoint x="50" y="50" as="sourcePoint" />
            <mxPoint x="200" y="60" as="targetPoint" />
          </mxGeometry>
        </mxCell>
        <mxCell id="qXFN8-RXIhqxppqacFem-177" value="17" style="text;html=1;strokeColor=none;fillColor=none;align=center;verticalAlign=middle;whiteSpace=wrap;rounded=0;fontSize=14;" vertex="1" parent="qXFN8-RXIhqxppqacFem-173">
          <mxGeometry x="10" y="50" width="80" height="40" as="geometry" />
        </mxCell>
        <mxCell id="qXFN8-RXIhqxppqacFem-178" value="12" style="text;html=1;strokeColor=none;fillColor=none;align=center;verticalAlign=middle;whiteSpace=wrap;rounded=0;fontSize=14;" vertex="1" parent="qXFN8-RXIhqxppqacFem-173">
          <mxGeometry x="50" y="10" width="40" height="40" as="geometry" />
        </mxCell>
        <mxCell id="qXFN8-RXIhqxppqacFem-179" value="12" style="text;html=1;strokeColor=none;fillColor=none;align=center;verticalAlign=middle;whiteSpace=wrap;rounded=0;fontSize=14;" vertex="1" parent="qXFN8-RXIhqxppqacFem-173">
          <mxGeometry x="10" y="10" width="40" height="40" as="geometry" />
        </mxCell>
        <mxCell id="qXFN8-RXIhqxppqacFem-180" value="" style="endArrow=classic;html=1;rounded=0;strokeColor=default;dashed=1;dashPattern=8 8;exitX=1;exitY=0.5;exitDx=0;exitDy=0;entryX=0;entryY=0.75;entryDx=0;entryDy=0;" edge="1" parent="1" source="qXFN8-RXIhqxppqacFem-97" target="qXFN8-RXIhqxppqacFem-152">
          <mxGeometry width="50" height="50" relative="1" as="geometry">
            <mxPoint x="760" y="260" as="sourcePoint" />
            <mxPoint x="1220" y="720" as="targetPoint" />
          </mxGeometry>
        </mxCell>
        <mxCell id="qXFN8-RXIhqxppqacFem-181" value="E&#39;(0)" style="edgeLabel;html=1;align=center;verticalAlign=middle;resizable=0;points=[];" connectable="0" vertex="1" parent="qXFN8-RXIhqxppqacFem-180">
          <mxGeometry x="-0.0771" y="-1" relative="1" as="geometry">
            <mxPoint as="offset" />
          </mxGeometry>
        </mxCell>
        <mxCell id="qXFN8-RXIhqxppqacFem-182" value="" style="endArrow=classic;html=1;rounded=0;entryX=0;entryY=0.5;entryDx=0;entryDy=0;exitX=1;exitY=0.5;exitDx=0;exitDy=0;fillColor=#f8cecc;strokeColor=#b85450;" edge="1" parent="1" source="qXFN8-RXIhqxppqacFem-149" target="qXFN8-RXIhqxppqacFem-167">
          <mxGeometry width="50" height="50" relative="1" as="geometry">
            <mxPoint x="1100" y="580" as="sourcePoint" />
            <mxPoint x="1150" y="530" as="targetPoint" />
          </mxGeometry>
        </mxCell>
        <mxCell id="qXFN8-RXIhqxppqacFem-183" value="M(2)" style="edgeLabel;html=1;align=center;verticalAlign=middle;resizable=0;points=[];" connectable="0" vertex="1" parent="qXFN8-RXIhqxppqacFem-182">
          <mxGeometry x="0.2007" y="1" relative="1" as="geometry">
            <mxPoint x="-12" y="5" as="offset" />
          </mxGeometry>
        </mxCell>
        <mxCell id="qXFN8-RXIhqxppqacFem-184" value="" style="endArrow=classic;html=1;rounded=0;fillColor=#f8cecc;strokeColor=#b85450;" edge="1" parent="1">
          <mxGeometry width="50" height="50" relative="1" as="geometry">
            <mxPoint x="1370" y="560" as="sourcePoint" />
            <mxPoint x="1460" y="560" as="targetPoint" />
          </mxGeometry>
        </mxCell>
        <mxCell id="qXFN8-RXIhqxppqacFem-185" value="N(2)" style="edgeLabel;html=1;align=center;verticalAlign=middle;resizable=0;points=[];" connectable="0" vertex="1" parent="qXFN8-RXIhqxppqacFem-184">
          <mxGeometry x="-0.0732" relative="1" as="geometry">
            <mxPoint x="1" as="offset" />
          </mxGeometry>
        </mxCell>
        <mxCell id="qXFN8-RXIhqxppqacFem-186" value="" style="group" connectable="0" vertex="1" parent="1">
          <mxGeometry x="1654" y="510" width="100" height="100" as="geometry" />
        </mxCell>
        <mxCell id="qXFN8-RXIhqxppqacFem-187" value="" style="ellipse;whiteSpace=wrap;html=1;aspect=fixed;fontSize=14;" vertex="1" parent="qXFN8-RXIhqxppqacFem-186">
          <mxGeometry width="100" height="100" as="geometry" />
        </mxCell>
        <mxCell id="qXFN8-RXIhqxppqacFem-188" value="" style="endArrow=none;html=1;rounded=0;exitX=0;exitY=0.5;exitDx=0;exitDy=0;entryX=1;entryY=0.5;entryDx=0;entryDy=0;fontSize=14;" edge="1" parent="qXFN8-RXIhqxppqacFem-186" source="qXFN8-RXIhqxppqacFem-187" target="qXFN8-RXIhqxppqacFem-187">
          <mxGeometry width="50" height="50" relative="1" as="geometry">
            <mxPoint x="150" y="110" as="sourcePoint" />
            <mxPoint x="200" y="60" as="targetPoint" />
          </mxGeometry>
        </mxCell>
        <mxCell id="qXFN8-RXIhqxppqacFem-189" value="" style="endArrow=none;html=1;rounded=0;entryX=0.5;entryY=0;entryDx=0;entryDy=0;fontSize=14;" edge="1" parent="qXFN8-RXIhqxppqacFem-186" target="qXFN8-RXIhqxppqacFem-187">
          <mxGeometry width="50" height="50" relative="1" as="geometry">
            <mxPoint x="50" y="50" as="sourcePoint" />
            <mxPoint x="200" y="60" as="targetPoint" />
          </mxGeometry>
        </mxCell>
        <mxCell id="qXFN8-RXIhqxppqacFem-190" value="17" style="text;html=1;strokeColor=none;fillColor=none;align=center;verticalAlign=middle;whiteSpace=wrap;rounded=0;fontSize=14;" vertex="1" parent="qXFN8-RXIhqxppqacFem-186">
          <mxGeometry x="10" y="50" width="80" height="40" as="geometry" />
        </mxCell>
        <mxCell id="qXFN8-RXIhqxppqacFem-191" value="14" style="text;html=1;strokeColor=none;fillColor=none;align=center;verticalAlign=middle;whiteSpace=wrap;rounded=0;fontSize=14;" vertex="1" parent="qXFN8-RXIhqxppqacFem-186">
          <mxGeometry x="50" y="10" width="40" height="40" as="geometry" />
        </mxCell>
        <mxCell id="qXFN8-RXIhqxppqacFem-192" value="14" style="text;html=1;strokeColor=none;fillColor=none;align=center;verticalAlign=middle;whiteSpace=wrap;rounded=0;fontSize=14;" vertex="1" parent="qXFN8-RXIhqxppqacFem-186">
          <mxGeometry x="10" y="10" width="40" height="40" as="geometry" />
        </mxCell>
        <mxCell id="qXFN8-RXIhqxppqacFem-193" value="" style="endArrow=classic;html=1;rounded=0;fillColor=#f8cecc;strokeColor=#b85450;" edge="1" parent="1">
          <mxGeometry width="50" height="50" relative="1" as="geometry">
            <mxPoint x="1560" y="560" as="sourcePoint" />
            <mxPoint x="1660" y="560" as="targetPoint" />
          </mxGeometry>
        </mxCell>
        <mxCell id="qXFN8-RXIhqxppqacFem-194" value="Q(2)" style="edgeLabel;html=1;align=center;verticalAlign=middle;resizable=0;points=[];" connectable="0" vertex="1" parent="qXFN8-RXIhqxppqacFem-193">
          <mxGeometry x="-0.1241" y="-3" relative="1" as="geometry">
            <mxPoint as="offset" />
          </mxGeometry>
        </mxCell>
        <mxCell id="qXFN8-RXIhqxppqacFem-195" value="" style="endArrow=classic;html=1;rounded=0;dashed=1;dashPattern=8 8;exitX=1;exitY=0.5;exitDx=0;exitDy=0;entryX=0.366;entryY=0.01;entryDx=0;entryDy=0;entryPerimeter=0;" edge="1" parent="1" source="qXFN8-RXIhqxppqacFem-156" target="qXFN8-RXIhqxppqacFem-174">
          <mxGeometry width="50" height="50" relative="1" as="geometry">
            <mxPoint x="1170" y="650" as="sourcePoint" />
            <mxPoint x="1640" y="310" as="targetPoint" />
          </mxGeometry>
        </mxCell>
        <mxCell id="qXFN8-RXIhqxppqacFem-196" value="P&#39;(0)" style="edgeLabel;html=1;align=center;verticalAlign=middle;resizable=0;points=[];" connectable="0" vertex="1" parent="qXFN8-RXIhqxppqacFem-195">
          <mxGeometry x="0.0469" y="-2" relative="1" as="geometry">
            <mxPoint as="offset" />
          </mxGeometry>
        </mxCell>
        <mxCell id="qXFN8-RXIhqxppqacFem-198" value="" style="group" connectable="0" vertex="1" parent="1">
          <mxGeometry x="1820" y="510" width="100" height="100" as="geometry" />
        </mxCell>
        <mxCell id="qXFN8-RXIhqxppqacFem-199" value="" style="ellipse;whiteSpace=wrap;html=1;aspect=fixed;fontSize=14;" vertex="1" parent="qXFN8-RXIhqxppqacFem-198">
          <mxGeometry width="100" height="100" as="geometry" />
        </mxCell>
        <mxCell id="qXFN8-RXIhqxppqacFem-200" value="" style="endArrow=none;html=1;rounded=0;exitX=0;exitY=0.5;exitDx=0;exitDy=0;entryX=1;entryY=0.5;entryDx=0;entryDy=0;fontSize=14;" edge="1" parent="qXFN8-RXIhqxppqacFem-198" source="qXFN8-RXIhqxppqacFem-199" target="qXFN8-RXIhqxppqacFem-199">
          <mxGeometry width="50" height="50" relative="1" as="geometry">
            <mxPoint x="150" y="110" as="sourcePoint" />
            <mxPoint x="200" y="60" as="targetPoint" />
          </mxGeometry>
        </mxCell>
        <mxCell id="qXFN8-RXIhqxppqacFem-201" value="" style="endArrow=none;html=1;rounded=0;entryX=0.5;entryY=0;entryDx=0;entryDy=0;fontSize=14;" edge="1" parent="qXFN8-RXIhqxppqacFem-198" target="qXFN8-RXIhqxppqacFem-199">
          <mxGeometry width="50" height="50" relative="1" as="geometry">
            <mxPoint x="50" y="50" as="sourcePoint" />
            <mxPoint x="200" y="60" as="targetPoint" />
          </mxGeometry>
        </mxCell>
        <mxCell id="qXFN8-RXIhqxppqacFem-202" value="FIN" style="text;html=1;strokeColor=none;fillColor=none;align=center;verticalAlign=middle;whiteSpace=wrap;rounded=0;fontSize=14;" vertex="1" parent="qXFN8-RXIhqxppqacFem-198">
          <mxGeometry x="10" y="50" width="80" height="40" as="geometry" />
        </mxCell>
        <mxCell id="qXFN8-RXIhqxppqacFem-203" value="16" style="text;html=1;strokeColor=none;fillColor=none;align=center;verticalAlign=middle;whiteSpace=wrap;rounded=0;fontSize=14;" vertex="1" parent="qXFN8-RXIhqxppqacFem-198">
          <mxGeometry x="50" y="10" width="40" height="40" as="geometry" />
        </mxCell>
        <mxCell id="qXFN8-RXIhqxppqacFem-204" value="16" style="text;html=1;strokeColor=none;fillColor=none;align=center;verticalAlign=middle;whiteSpace=wrap;rounded=0;fontSize=14;" vertex="1" parent="qXFN8-RXIhqxppqacFem-198">
          <mxGeometry x="10" y="10" width="40" height="40" as="geometry" />
        </mxCell>
        <mxCell id="qXFN8-RXIhqxppqacFem-205" value="" style="endArrow=classic;html=1;rounded=0;entryX=0.026;entryY=0.739;entryDx=0;entryDy=0;exitX=0.969;exitY=0.704;exitDx=0;exitDy=0;exitPerimeter=0;dashed=1;dashPattern=8 8;entryPerimeter=0;" edge="1" parent="1" source="qXFN8-RXIhqxppqacFem-97" target="qXFN8-RXIhqxppqacFem-187">
          <mxGeometry width="50" height="50" relative="1" as="geometry">
            <mxPoint x="760" y="780" as="sourcePoint" />
            <mxPoint x="860" y="780" as="targetPoint" />
          </mxGeometry>
        </mxCell>
        <mxCell id="qXFN8-RXIhqxppqacFem-206" value="E&#39;(0)" style="edgeLabel;html=1;align=center;verticalAlign=middle;resizable=0;points=[];" connectable="0" vertex="1" parent="qXFN8-RXIhqxppqacFem-205">
          <mxGeometry x="-0.0655" relative="1" as="geometry">
            <mxPoint as="offset" />
          </mxGeometry>
        </mxCell>
        <mxCell id="qXFN8-RXIhqxppqacFem-207" value="" style="endArrow=classic;html=1;rounded=0;entryX=0.226;entryY=0.916;entryDx=0;entryDy=0;dashed=1;dashPattern=8 8;entryPerimeter=0;" edge="1" parent="1" target="qXFN8-RXIhqxppqacFem-187">
          <mxGeometry width="50" height="50" relative="1" as="geometry">
            <mxPoint x="550" y="880" as="sourcePoint" />
            <mxPoint x="730" y="390" as="targetPoint" />
          </mxGeometry>
        </mxCell>
        <mxCell id="qXFN8-RXIhqxppqacFem-208" value="R&#39;0)" style="edgeLabel;html=1;align=center;verticalAlign=middle;resizable=0;points=[];" connectable="0" vertex="1" parent="qXFN8-RXIhqxppqacFem-207">
          <mxGeometry x="-0.0736" y="4" relative="1" as="geometry">
            <mxPoint as="offset" />
          </mxGeometry>
        </mxCell>
        <mxCell id="qXFN8-RXIhqxppqacFem-217" value="ETAPE 1" style="text;html=1;strokeColor=none;fillColor=none;align=center;verticalAlign=middle;whiteSpace=wrap;rounded=0;fontSize=20;" vertex="1" parent="1">
          <mxGeometry x="190" y="-10" width="100" height="30" as="geometry" />
        </mxCell>
        <mxCell id="qXFN8-RXIhqxppqacFem-218" value="" style="endArrow=classic;html=1;rounded=0;exitX=1;exitY=0.5;exitDx=0;exitDy=0;entryX=0;entryY=0.5;entryDx=0;entryDy=0;fillColor=#f8cecc;strokeColor=#b85450;" edge="1" parent="1" source="qXFN8-RXIhqxppqacFem-187" target="qXFN8-RXIhqxppqacFem-199">
          <mxGeometry width="50" height="50" relative="1" as="geometry">
            <mxPoint x="1620" y="490" as="sourcePoint" />
            <mxPoint x="1812" y="630" as="targetPoint" />
          </mxGeometry>
        </mxCell>
        <mxCell id="qXFN8-RXIhqxppqacFem-220" value="S(2)" style="edgeLabel;html=1;align=center;verticalAlign=middle;resizable=0;points=[];" connectable="0" vertex="1" parent="qXFN8-RXIhqxppqacFem-218">
          <mxGeometry x="-0.1121" y="-1" relative="1" as="geometry">
            <mxPoint as="offset" />
          </mxGeometry>
        </mxCell>
        <mxCell id="qXFN8-RXIhqxppqacFem-222" value="" style="endArrow=classic;html=1;rounded=0;exitX=1;exitY=0.5;exitDx=0;exitDy=0;entryX=0.07;entryY=0.22;entryDx=0;entryDy=0;dashed=1;dashPattern=8 8;entryPerimeter=0;" edge="1" parent="1" source="qXFN8-RXIhqxppqacFem-23" target="qXFN8-RXIhqxppqacFem-199">
          <mxGeometry width="50" height="50" relative="1" as="geometry">
            <mxPoint x="1120" y="490" as="sourcePoint" />
            <mxPoint x="1170" y="440" as="targetPoint" />
          </mxGeometry>
        </mxCell>
        <mxCell id="qXFN8-RXIhqxppqacFem-223" value="H&#39;(0)" style="edgeLabel;html=1;align=center;verticalAlign=middle;resizable=0;points=[];" connectable="0" vertex="1" parent="qXFN8-RXIhqxppqacFem-222">
          <mxGeometry x="-0.027" y="-2" relative="1" as="geometry">
            <mxPoint as="offset" />
          </mxGeometry>
        </mxCell>
        <mxCell id="qXFN8-RXIhqxppqacFem-224" value="" style="endArrow=classic;html=1;rounded=0;exitX=1;exitY=0.5;exitDx=0;exitDy=0;entryX=0.037;entryY=0.351;entryDx=0;entryDy=0;dashed=1;dashPattern=8 8;entryPerimeter=0;" edge="1" parent="1" source="qXFN8-RXIhqxppqacFem-106" target="qXFN8-RXIhqxppqacFem-199">
          <mxGeometry width="50" height="50" relative="1" as="geometry">
            <mxPoint x="1120" y="490" as="sourcePoint" />
            <mxPoint x="1170" y="440" as="targetPoint" />
          </mxGeometry>
        </mxCell>
        <mxCell id="qXFN8-RXIhqxppqacFem-225" value="G&#39;(0)" style="edgeLabel;html=1;align=center;verticalAlign=middle;resizable=0;points=[];" connectable="0" vertex="1" parent="qXFN8-RXIhqxppqacFem-224">
          <mxGeometry x="-0.0383" y="2" relative="1" as="geometry">
            <mxPoint x="-1" as="offset" />
          </mxGeometry>
        </mxCell>
        <mxCell id="qXFN8-RXIhqxppqacFem-226" value="" style="endArrow=classic;html=1;rounded=0;exitX=1;exitY=0.5;exitDx=0;exitDy=0;dashed=1;dashPattern=8 8;entryX=0;entryY=0;entryDx=0;entryDy=0;" edge="1" parent="1" source="qXFN8-RXIhqxppqacFem-115" target="qXFN8-RXIhqxppqacFem-199">
          <mxGeometry width="50" height="50" relative="1" as="geometry">
            <mxPoint x="1120" y="490" as="sourcePoint" />
            <mxPoint x="1820" y="400" as="targetPoint" />
          </mxGeometry>
        </mxCell>
        <mxCell id="qXFN8-RXIhqxppqacFem-227" value="J&#39;(0)" style="edgeLabel;html=1;align=center;verticalAlign=middle;resizable=0;points=[];" connectable="0" vertex="1" parent="qXFN8-RXIhqxppqacFem-226">
          <mxGeometry x="-0.0484" relative="1" as="geometry">
            <mxPoint as="offset" />
          </mxGeometry>
        </mxCell>
        <mxCell id="qXFN8-RXIhqxppqacFem-228" value="ETAPE 2" style="text;html=1;strokeColor=none;fillColor=none;align=center;verticalAlign=middle;whiteSpace=wrap;rounded=0;fontSize=20;" vertex="1" parent="1">
          <mxGeometry x="450" y="-10" width="100" height="30" as="geometry" />
        </mxCell>
        <mxCell id="qXFN8-RXIhqxppqacFem-229" value="ETAPE 3" style="text;html=1;strokeColor=none;fillColor=none;align=center;verticalAlign=middle;whiteSpace=wrap;rounded=0;fontSize=20;" vertex="1" parent="1">
          <mxGeometry x="660" y="-10" width="100" height="30" as="geometry" />
        </mxCell>
        <mxCell id="qXFN8-RXIhqxppqacFem-230" value="ETAPE 4" style="text;html=1;strokeColor=none;fillColor=none;align=center;verticalAlign=middle;whiteSpace=wrap;rounded=0;fontSize=20;" vertex="1" parent="1">
          <mxGeometry x="860" y="-10" width="100" height="30" as="geometry" />
        </mxCell>
        <mxCell id="qXFN8-RXIhqxppqacFem-231" value="ETAPE 5" style="text;html=1;strokeColor=none;fillColor=none;align=center;verticalAlign=middle;whiteSpace=wrap;rounded=0;fontSize=20;" vertex="1" parent="1">
          <mxGeometry x="1070" y="-10" width="100" height="30" as="geometry" />
        </mxCell>
        <mxCell id="qXFN8-RXIhqxppqacFem-232" value="DEBUT" style="text;html=1;strokeColor=none;fillColor=none;align=center;verticalAlign=middle;whiteSpace=wrap;rounded=0;fontSize=20;" vertex="1" parent="1">
          <mxGeometry x="30" y="-10" width="100" height="30" as="geometry" />
        </mxCell>
        <mxCell id="qXFN8-RXIhqxppqacFem-233" value="ETAPE 6" style="text;html=1;strokeColor=none;fillColor=none;align=center;verticalAlign=middle;whiteSpace=wrap;rounded=0;fontSize=20;" vertex="1" parent="1">
          <mxGeometry x="1270" y="-10" width="100" height="30" as="geometry" />
        </mxCell>
        <mxCell id="qXFN8-RXIhqxppqacFem-234" value="ETAPE 7" style="text;html=1;strokeColor=none;fillColor=none;align=center;verticalAlign=middle;whiteSpace=wrap;rounded=0;fontSize=20;" vertex="1" parent="1">
          <mxGeometry x="1460" y="-10" width="100" height="30" as="geometry" />
        </mxCell>
        <mxCell id="qXFN8-RXIhqxppqacFem-235" value="ETAPE 8" style="text;html=1;strokeColor=none;fillColor=none;align=center;verticalAlign=middle;whiteSpace=wrap;rounded=0;fontSize=20;" vertex="1" parent="1">
          <mxGeometry x="1650" y="-10" width="100" height="30" as="geometry" />
        </mxCell>
        <mxCell id="b7F2Qvdrb5Qbtj7gNlXD-2" value="FIN" style="text;html=1;strokeColor=none;fillColor=none;align=center;verticalAlign=middle;whiteSpace=wrap;rounded=0;fontSize=20;" vertex="1" parent="1">
          <mxGeometry x="1820" y="-10" width="100" height="30" as="geometry" />
        </mxCell>
        <mxCell id="muU7PtH1-Jm87qFqQr36-1" value="" style="endArrow=classic;html=1;rounded=0;exitX=0.053;exitY=0.227;exitDx=0;exitDy=0;dashed=1;dashPattern=8 8;entryX=0.939;entryY=0.77;entryDx=0;entryDy=0;entryPerimeter=0;exitPerimeter=0;" edge="1" parent="1" source="qXFN8-RXIhqxppqacFem-138" target="qXFN8-RXIhqxppqacFem-30">
          <mxGeometry width="50" height="50" relative="1" as="geometry">
            <mxPoint x="1210" y="400" as="sourcePoint" />
            <mxPoint x="1085" y="245" as="targetPoint" />
          </mxGeometry>
        </mxCell>
        <mxCell id="muU7PtH1-Jm87qFqQr36-2" value="O&#39;(0)" style="edgeLabel;html=1;align=center;verticalAlign=middle;resizable=0;points=[];" connectable="0" vertex="1" parent="muU7PtH1-Jm87qFqQr36-1">
          <mxGeometry x="-0.1511" y="1" relative="1" as="geometry">
            <mxPoint as="offset" />
          </mxGeometry>
        </mxCell>
      </root>
    </mxGraphModel>
  </diagram>
</mxfile>
